<svg width="62" height="62" viewBox="0 0 62 62" fill="none" xmlns="http://www.w3.org/2000/svg">
<rect width="62" height="62" rx="8" fill="#FF7D61"/>
<g clip-path="url(#clip0_809_684)">
<path d="M42.0533 46.9996H17.9467C17.04 46.9996 16.3467 46.3086 16.3467 45.4049V27.2255C16.3467 26.3219 17.04 25.6309 17.9467 25.6309C18.8533 25.6309 19.5467 26.3219 19.5467 27.2255V43.8103H40.4533V27.2255C40.4533 26.3219 41.1467 25.6309 42.0533 25.6309C42.96 25.6309 43.6533 26.3219 43.6533 27.2255V45.4049C43.6533 46.2554 42.9067 46.9996 42.0533 46.9996Z" fill="#F8F8FF"/>
<path d="M44.4 28.8202H15.6C14.6933 28.8202 14 28.1292 14 27.2256V21.3784C14 20.4747 14.6933 19.7837 15.6 19.7837H44.4C45.3067 19.7837 46 20.4747 46 21.3784V27.2256C46 28.1292 45.3067 28.8202 44.4 28.8202ZM17.2 25.6309H42.8V22.9731H17.2V25.6309Z" fill="#F8F8FF"/>
<path d="M30.0001 46.2555C29.0935 46.2555 28.4001 45.5644 28.4001 44.6608V21.3784C28.4001 20.4747 29.0935 19.7837 30.0001 19.7837C30.9068 19.7837 31.6001 20.4747 31.6001 21.3784V44.6608C31.6001 45.5113 30.8535 46.2555 30.0001 46.2555Z" fill="#F8F8FF"/>
<path d="M39.7067 22.9735C39.6001 22.9735 39.4401 22.9735 39.3334 22.9203C38.4801 22.7077 37.9467 21.8572 38.1601 21.0067C38.1601 20.9535 38.5867 18.9336 37.6267 18.5083C36.7201 18.0831 35.4934 18.0831 34.2667 18.6147C32.9334 19.1462 31.8134 20.2093 31.4401 21.2193C31.1201 22.0698 30.2134 22.4951 29.4134 22.1761C28.5601 21.8572 28.1334 20.9535 28.4534 20.1562C29.1467 18.2957 30.9067 16.5947 33.0401 15.6911C35.1201 14.8406 37.2534 14.8406 38.9601 15.6379C41.6267 16.9137 41.6267 20.0499 41.2001 21.7509C41.0934 22.4419 40.4534 22.9735 39.7067 22.9735Z" fill="#F8F8FF"/>
<path d="M20.5066 22.9201C19.76 22.9201 19.12 22.4417 18.96 21.6975C18.5333 20.0497 18.5333 16.8603 21.2 15.6377C22.96 14.7872 25.04 14.7872 27.12 15.6909C29.3066 16.5945 31.0666 18.2955 31.7066 20.156C32.0266 21.0065 31.5466 21.9102 30.7466 22.1759C29.8933 22.4949 28.9866 22.0165 28.72 21.2191C28.3466 20.2092 27.2266 19.146 25.8933 18.6145C24.6666 18.1361 23.44 18.0829 22.5333 18.5082C21.6266 18.9334 22 20.9533 22 21.0065C22.2133 21.857 21.68 22.7075 20.8266 22.9201C20.7733 22.9201 20.6133 22.9201 20.5066 22.9201Z" fill="#F8F8FF"/>
</g>
<defs>
<clipPath id="clip0_809_684">
<rect width="32" height="32" fill="white" transform="translate(14 15)"/>
</clipPath>
</defs>
</svg>
