<svg width="62" height="62" viewBox="0 0 62 62" fill="none" xmlns="http://www.w3.org/2000/svg">
<rect width="62" height="62" rx="8" fill="#FFCC15"/>
<g clip-path="url(#clip0_809_715)">
<path d="M17.6511 48.5109C16.7155 48.5109 16 47.7955 16 46.8599V42.1268C16 36.6232 19.027 33.5962 24.5306 33.5962H34.1619C39.6655 33.5962 42.6924 36.6232 42.6924 42.1268V46.8599C42.6924 47.7955 41.977 48.5109 41.0414 48.5109C40.1058 48.5109 39.3903 47.7955 39.3903 46.8599V42.1268C39.3903 38.4394 37.7942 36.8984 34.1619 36.8984H24.5306C20.8432 36.8984 19.3022 38.4944 19.3022 42.1268V46.8599C19.3022 47.7404 18.5867 48.5109 17.6511 48.5109Z" fill="#F8F8FF"/>
<path d="M29.3186 32.2202C24.6956 32.2202 20.9531 28.4777 20.9531 23.8547C20.9531 19.2317 24.6956 15.4893 29.3186 15.4893C33.9416 15.4893 37.6841 19.2317 37.6841 23.8547C37.6841 28.4777 33.9416 32.2202 29.3186 32.2202ZM29.3186 18.7914C26.5118 18.7914 24.2553 21.0479 24.2553 23.8547C24.2553 26.6616 26.5118 28.918 29.3186 28.918C32.1254 28.918 34.3819 26.6616 34.3819 23.8547C34.3819 21.0479 32.1254 18.7914 29.3186 18.7914Z" fill="#F8F8FF"/>
<path d="M44.949 31.6698H38.2346C37.299 31.6698 36.5835 30.9544 36.5835 30.0188C36.5835 29.0831 37.299 28.3677 38.2346 28.3677H45.004C45.9396 28.3677 46.6551 29.0831 46.6551 30.0188C46.6551 30.9544 45.8846 31.6698 44.949 31.6698Z" fill="#F8F8FF"/>
<path d="M41.5918 35.0273C40.6561 35.0273 39.9407 34.3118 39.9407 33.3762V26.6618C39.9407 25.7262 40.6561 25.0107 41.5918 25.0107C42.5274 25.0107 43.2428 25.7262 43.2428 26.6618V33.4312C43.2428 34.3118 42.5274 35.0273 41.5918 35.0273Z" fill="#F8F8FF"/>
</g>
<defs>
<clipPath id="clip0_809_715">
<rect width="30.6" height="33.0216" fill="white" transform="translate(16 15.4893)"/>
</clipPath>
</defs>
</svg>
