<svg xmlns="http://www.w3.org/2000/svg" xmlns:xlink="http://www.w3.org/1999/xlink" width="24" height="24" viewBox="0 0 24 24">
    <defs>
        <path id="a" d="M15.134 14.216l-2.673-2.674a.646.646 0 0 0-.915 0l-2.673 2.674a.646.646 0 1 0 .914.914l2.217-2.216 2.216 2.216a.644.644 0 0 0 .914 0 .646.646 0 0 0 0-.914zm-3.13-2.863a.646.646 0 0 0-.647.646v6.016a.646.646 0 1 0 1.293 0V12a.646.646 0 0 0-.646-.646zm7.51.074a3.987 3.987 0 0 0-3.5-2.08h-.363A6.002 6.002 0 0 0 8.494 5.53a6 6 0 0 0-4.302 7.303c.235.91.688 1.764 1.311 2.469a.646.646 0 1 0 .969-.856 4.723 4.723 0 0 1-1.029-1.937 4.67 4.67 0 0 1 .501-3.563 4.67 4.67 0 0 1 2.874-2.165 4.707 4.707 0 0 1 5.728 3.375.646.646 0 0 0 .626.485h.842a2.695 2.695 0 0 1 1.288 5.062.646.646 0 1 0 .62 1.135 3.993 3.993 0 0 0 1.592-5.41zm-4.38 2.79l-2.673-2.675a.646.646 0 0 0-.915 0l-2.673 2.674a.646.646 0 1 0 .914.914l2.217-2.216 2.216 2.216a.644.644 0 0 0 .914 0 .646.646 0 0 0 0-.914z"/>
    </defs>
    <g fill="none" fill-rule="evenodd">
        <mask id="b" fill="#fff">
            <use xlink:href="#a"/>
        </mask>
        <g fill="#008BFF" mask="url(#b)">
            <path d="M0 0h24v24H0z"/>
        </g>
    </g>
</svg>
