<svg width="62" height="62" viewBox="0 0 62 62" fill="none" xmlns="http://www.w3.org/2000/svg">
<rect width="62" height="62" rx="8" fill="#0099A8"/>
<g clip-path="url(#clip0_809_700)">
<path d="M30.9288 49.4168H29.013C26.923 49.4168 25.1813 47.6752 25.1813 45.5852V43.5532L23.7299 45.0046C22.2205 46.5141 19.7821 46.5141 18.3308 45.0046L16.9955 43.6113C15.486 42.1018 15.486 39.6635 16.9955 38.2121L18.4469 36.7607H16.4149C14.3249 36.7607 12.5833 35.0191 12.5833 32.9291V31.0132C12.5833 28.9232 14.3249 27.1816 16.4149 27.1816H18.4469L16.9955 25.7302C15.486 24.2207 15.486 21.7824 16.9955 20.331L18.3308 18.9957C19.8402 17.4863 22.2785 17.4863 23.7299 18.9957L25.1813 20.4471V18.4152C25.1813 16.3252 26.923 14.5835 29.013 14.5835H30.9288C33.0188 14.5835 34.7605 16.3252 34.7605 18.4152V20.4471L36.2119 18.9957C37.7213 17.4863 40.1596 17.4863 41.611 18.9957L42.9463 20.331C44.4557 21.8404 44.4557 24.2788 42.9463 25.7302L41.4949 27.1816H43.5269C45.6169 27.1816 47.3585 28.9232 47.3585 31.0132V32.9291C47.3585 35.0191 45.6169 36.7607 43.5269 36.7607H41.4949L42.9463 38.2121C44.4557 39.7216 44.4557 42.1599 42.9463 43.6113L41.611 44.9466C40.1016 46.456 37.6632 46.456 36.2119 44.9466L34.7605 43.4952V45.5271C34.7605 47.6752 33.0769 49.4168 30.9288 49.4168ZM25.4135 39.7796C25.8199 39.7796 26.2844 39.8377 26.6908 40.0118C27.9099 40.5343 28.7227 41.6954 28.7227 43.0307V45.5271C28.7227 45.7013 28.8969 45.8754 29.071 45.8754H30.9869C31.161 45.8754 31.3352 45.7013 31.3352 45.5271V43.0307C31.3352 41.6954 32.148 40.4763 33.3671 40.0118C34.5863 39.4893 36.0377 39.7796 36.9666 40.7085L38.7082 42.4502C38.8824 42.6243 39.0566 42.6243 39.1727 42.4502L40.508 41.1149C40.566 41.0568 40.6241 40.9407 40.6241 40.8827C40.6241 40.8246 40.6241 40.7085 40.508 40.6504L38.7663 38.9088C37.8374 37.9799 37.5471 36.5285 38.0696 35.3093C38.5921 34.0902 39.7532 33.2774 41.0885 33.2774H43.5849C43.7591 33.2774 43.9332 33.1032 43.9332 32.9291V31.0132C43.9332 30.8391 43.7591 30.6649 43.5849 30.6649H41.0885C39.7532 30.6649 38.5341 29.8521 38.0696 28.6329C37.6052 27.4138 37.8374 25.9624 38.7663 25.0335L40.508 23.2918C40.566 23.2338 40.6241 23.1177 40.6241 23.0596C40.6241 23.0016 40.6241 22.8854 40.508 22.8274L39.1727 21.4921C38.9985 21.3179 38.8244 21.3179 38.7082 21.4921L36.9666 23.2338C36.0377 24.1627 34.5863 24.4529 33.3671 23.9304C32.148 23.4079 31.3352 22.2468 31.3352 20.9116V18.4152C31.3352 18.241 31.161 18.0668 30.9869 18.0668H29.071C28.8969 18.0668 28.7227 18.241 28.7227 18.4152V20.9116C28.7227 22.2468 27.9099 23.466 26.6908 23.9304C25.4716 24.4529 24.0202 24.1627 23.0913 23.2338L21.3496 21.4921C21.1755 21.3179 21.0013 21.3179 20.8852 21.4921L19.5499 22.8274C19.4919 22.8854 19.4338 23.0016 19.4338 23.0596C19.4338 23.1177 19.4338 23.2338 19.5499 23.2918L21.2916 25.0335C22.2205 25.9624 22.5108 27.4138 21.9883 28.6329C21.4658 29.8521 20.3046 30.6649 18.9694 30.6649H16.4149C16.2408 30.7229 16.0666 30.8391 16.0666 31.0132V32.9291C16.0666 33.1032 16.2408 33.2774 16.4149 33.2774H18.9113C20.2466 33.2774 21.4658 34.0902 21.9302 35.3093C22.3946 36.5285 22.1624 37.9799 21.2335 38.9088L19.4919 40.6504C19.4338 40.7085 19.3758 40.8246 19.3758 40.8827C19.3758 40.9407 19.3758 41.0568 19.4919 41.1149L20.8271 42.4502C21.0013 42.6243 21.1755 42.6243 21.2916 42.4502L23.0333 40.7085C23.7299 40.1279 24.5427 39.7796 25.4135 39.7796Z" fill="#F8F8FF"/>
<path d="M29.9998 38.7345C26.2843 38.7345 23.2654 35.7156 23.2654 32C23.2654 28.2845 26.2843 25.2075 29.9998 25.2075C33.7154 25.2075 36.7343 28.2845 36.7343 32C36.7343 35.7156 33.7154 38.7345 29.9998 38.7345ZM29.9998 28.5167C28.084 28.5167 26.5165 30.0842 26.5165 32C26.5165 33.9159 28.084 35.4834 29.9998 35.4834C31.9157 35.4834 33.4832 33.9159 33.4832 32C33.4832 30.0842 31.9157 28.5167 29.9998 28.5167Z" fill="#F8F8FF"/>
</g>
<defs>
<clipPath id="clip0_809_700">
<rect width="34.8333" height="34.8333" fill="white" transform="translate(12.5833 14.5835)"/>
</clipPath>
</defs>
</svg>
